<svg width="32" height="32" viewBox="0 0 32 32" fill="none" xmlns="http://www.w3.org/2000/svg">
<path d="M19.71 16.7099C20.6904 15.9385 21.406 14.8808 21.7572 13.6838C22.1085 12.4868 22.0779 11.2101 21.6698 10.0313C21.2617 8.85255 20.4963 7.83027 19.4801 7.10674C18.4639 6.3832 17.2474 5.99438 16 5.99438C14.7525 5.99438 13.5361 6.3832 12.5199 7.10674C11.5037 7.83027 10.7383 8.85255 10.3302 10.0313C9.92208 11.2101 9.89151 12.4868 10.2428 13.6838C10.594 14.8808 11.3096 15.9385 12.29 16.7099C10.6101 17.3829 9.14428 18.4992 8.04889 19.9398C6.95349 21.3804 6.26956 23.0912 6.07 24.8899C6.05555 25.0212 6.06711 25.1541 6.10402 25.2809C6.14093 25.4078 6.20246 25.5261 6.28511 25.6292C6.45202 25.8374 6.69478 25.9707 6.96 25.9999C7.22521 26.0291 7.49116 25.9517 7.69932 25.7848C7.90749 25.6179 8.04082 25.3751 8.07 25.1099C8.28958 23.1551 9.22168 21.3497 10.6882 20.0387C12.1547 18.7277 14.0529 18.0029 16.02 18.0029C17.9871 18.0029 19.8852 18.7277 21.3518 20.0387C22.8183 21.3497 23.7504 23.1551 23.97 25.1099C23.9972 25.3556 24.1144 25.5825 24.2991 25.7469C24.4838 25.9113 24.7228 26.0014 24.97 25.9999H25.08C25.3421 25.9697 25.5817 25.8372 25.7466 25.6311C25.9114 25.4251 25.9881 25.1622 25.96 24.8999C25.7595 23.0961 25.0719 21.3809 23.9708 19.9381C22.8698 18.4953 21.3969 17.3794 19.71 16.7099V16.7099ZM16 15.9999C15.2089 15.9999 14.4355 15.7653 13.7777 15.3258C13.1199 14.8862 12.6072 14.2615 12.3045 13.5306C12.0017 12.7997 11.9225 11.9954 12.0769 11.2195C12.2312 10.4436 12.6122 9.73086 13.1716 9.17145C13.731 8.61204 14.4437 8.23108 15.2196 8.07674C15.9956 7.9224 16.7998 8.00161 17.5307 8.30436C18.2616 8.60711 18.8863 9.1198 19.3259 9.7776C19.7654 10.4354 20 11.2088 20 11.9999C20 13.0607 19.5786 14.0782 18.8284 14.8283C18.0783 15.5785 17.0609 15.9999 16 15.9999Z" fill="#326FFF"/>
</svg>
