<svg width="16" height="16" viewBox="0 0 16 16" fill="none" xmlns="http://www.w3.org/2000/svg">
<path d="M7.99997 1.33325C6.97736 1.33321 5.96844 1.56841 5.05128 2.02067C4.13411 2.47293 3.33328 3.13012 2.71073 3.9414C2.08819 4.75268 1.66063 5.6963 1.46112 6.69926C1.26161 7.70222 1.2955 8.73764 1.56017 9.7254C1.82485 10.7132 2.31321 11.6268 2.98748 12.3956C3.66174 13.1645 4.50384 13.7679 5.44862 14.1592C6.3934 14.5505 7.41554 14.7192 8.43595 14.6523C9.45637 14.5854 10.4477 14.2846 11.3333 13.7733C11.413 13.7316 11.4834 13.6742 11.5403 13.6046C11.5972 13.535 11.6395 13.4546 11.6646 13.3683C11.6896 13.2819 11.6969 13.1914 11.6861 13.1021C11.6752 13.0129 11.6465 12.9267 11.6015 12.8489C11.5565 12.7711 11.4962 12.7031 11.4243 12.6492C11.3523 12.5952 11.2702 12.5564 11.1829 12.535C11.0956 12.5136 11.0048 12.5101 10.9161 12.5247C10.8274 12.5393 10.7425 12.5717 10.6666 12.6199C9.64992 13.2069 8.46793 13.442 7.30398 13.2888C6.14002 13.1356 5.05913 12.6027 4.22894 11.7726C3.39876 10.9425 2.86566 9.86164 2.71232 8.6977C2.55899 7.53376 2.79398 6.35175 3.38087 5.33497C3.96775 4.31819 4.87373 3.52347 5.9583 3.07405C7.04287 2.62462 8.24542 2.54562 9.37947 2.84928C10.5135 3.15294 11.5157 3.8223 12.2305 4.75356C12.9454 5.68481 13.333 6.82592 13.3333 7.99992V8.49992C13.3333 8.80934 13.2104 9.10608 12.9916 9.32488C12.7728 9.54367 12.4761 9.66659 12.1666 9.66659C11.8572 9.66659 11.5605 9.54367 11.3417 9.32488C11.1229 9.10608 11 8.80934 11 8.49992V5.66659C11 5.48977 10.9297 5.32021 10.8047 5.19518C10.6797 5.07016 10.5101 4.99992 10.3333 4.99992C10.1783 4.99647 10.0269 5.04717 9.9052 5.1433C9.78352 5.23943 9.69916 5.37497 9.66663 5.52659C9.17658 5.18764 8.59581 5.00412 7.99997 4.99992C7.49808 4.99392 7.0027 5.11393 6.55922 5.34898C6.11573 5.58403 5.7383 5.92659 5.46151 6.3453C5.18471 6.764 5.01739 7.24546 4.97487 7.74558C4.93236 8.2457 5.016 8.7485 5.21815 9.20792C5.42029 9.66734 5.73448 10.0687 6.13192 10.3752C6.52937 10.6818 6.99737 10.8837 7.49307 10.9625C7.98877 11.0413 8.49632 10.9945 8.96924 10.8263C9.44215 10.6581 9.86532 10.374 10.2 9.99992C10.5167 10.4101 10.9534 10.7114 11.4494 10.8619C11.9453 11.0124 12.4759 11.0046 12.9672 10.8397C13.4585 10.6747 13.8862 10.3607 14.1907 9.94133C14.4953 9.522 14.6617 9.01817 14.6666 8.49992V7.99992C14.6666 7.12444 14.4942 6.25753 14.1592 5.4487C13.8241 4.63986 13.3331 3.90493 12.714 3.28587C12.095 2.66682 11.36 2.17575 10.5512 1.84072C9.74235 1.50569 8.87545 1.33325 7.99997 1.33325ZM7.99997 9.66659C7.67033 9.66659 7.3481 9.56884 7.07402 9.3857C6.79994 9.20257 6.58631 8.94227 6.46017 8.63772C6.33402 8.33318 6.30102 7.99807 6.36533 7.67477C6.42963 7.35147 6.58837 7.05449 6.82146 6.82141C7.05454 6.58832 7.35152 6.42958 7.67482 6.36528C7.99812 6.30097 8.33323 6.33397 8.63777 6.46012C8.94232 6.58627 9.20261 6.79989 9.38575 7.07397C9.56889 7.34805 9.66663 7.67028 9.66663 7.99992C9.66663 8.44195 9.49104 8.86587 9.17848 9.17843C8.86592 9.49099 8.442 9.66659 7.99997 9.66659Z" fill="#5926FF"/>
</svg>
