<svg width="32" height="32" viewBox="0 0 32 32" fill="none" xmlns="http://www.w3.org/2000/svg">
<path d="M26.47 22.8199L25.47 18.9599L22.32 7.36991C22.2519 7.11425 22.0853 6.89598 21.8567 6.76291C21.628 6.62983 21.3559 6.5928 21.1 6.65991L17.23 7.65991C17.1376 7.55755 17.0251 7.4754 16.8995 7.41861C16.7739 7.36182 16.6379 7.33162 16.5 7.32991H6.5C6.23478 7.32991 5.98043 7.43526 5.79289 7.6228C5.60536 7.81034 5.5 8.06469 5.5 8.32991V24.3299C5.5 24.5951 5.60536 24.8495 5.79289 25.037C5.98043 25.2246 6.23478 25.3299 6.5 25.3299H16.5C16.7652 25.3299 17.0196 25.2246 17.2071 25.037C17.3946 24.8495 17.5 24.5951 17.5 24.3299V16.3299L19.7 24.5499C19.7586 24.7681 19.8893 24.96 20.0709 25.0943C20.2525 25.2287 20.4742 25.2976 20.7 25.2899C20.7864 25.2997 20.8736 25.2997 20.96 25.2899L25.79 23.9999C25.9177 23.9658 26.0374 23.9067 26.1421 23.826C26.2468 23.7453 26.3344 23.6447 26.4 23.5299C26.5055 23.3087 26.5302 23.0575 26.47 22.8199ZM10.47 23.3699H7.47V21.3699H10.47V23.3699ZM10.47 19.3699H7.47V13.3699H10.47V19.3699ZM10.47 11.3699H7.47V9.36991H10.47V11.3699ZM15.47 23.3699H12.47V21.3699H15.47V23.3699ZM15.47 19.3699H12.47V13.3699H15.47V19.3699ZM15.47 11.3699H12.47V9.36991H15.47V11.3699ZM17.72 9.62991L20.62 8.84991L21.14 10.7799L18.24 11.5599L17.72 9.62991ZM20.31 19.2899L18.76 13.4899L21.66 12.7099L23.21 18.5099L20.31 19.2899ZM21.31 23.1499L20.79 21.2199L23.69 20.4399L24.21 22.3699L21.31 23.1499Z" fill="#326FFF"/>
</svg>
