<svg width="2030" height="5776" viewBox="0 0 2030 5776" fill="none" xmlns="http://www.w3.org/2000/svg">
<g clip-path="url(#clip0)">
<rect width="2030" height="5776" fill="#F2F6FF"/>
<g filter="url(#filter0_f)">
<path fill-rule="evenodd" clip-rule="evenodd" d="M1311.93 465.005C1387.12 465.897 1400.8 579.454 1449.17 637.026C1482.24 676.38 1535.68 699.209 1550.14 748.534C1564.43 797.307 1528.93 844.446 1524.8 895.102C1518.76 969.318 1576.7 1064.16 1520.47 1112.98C1465.99 1160.28 1382.42 1095.27 1311.93 1079.92C1259.1 1068.42 1207.77 1060.53 1160.34 1034.57C1106.33 1004.99 1040.31 978.933 1020.8 920.525C1001.28 862.053 1034.94 799.803 1063.74 745.293C1088.58 698.266 1137.03 673.56 1172.29 633.742C1221.9 577.712 1237.09 464.118 1311.93 465.005Z" fill="#9CC6EE"/>
<path fill-rule="evenodd" clip-rule="evenodd" d="M797.075 5316.99C721.885 5316.1 708.196 5202.55 659.825 5144.97C626.762 5105.62 573.317 5082.79 558.863 5033.47C544.57 4984.69 580.074 4937.55 584.197 4886.9C590.238 4812.68 532.301 4717.84 588.528 4669.02C643.009 4621.72 726.578 4686.73 797.075 4702.08C849.901 4713.58 901.235 4721.47 948.656 4747.43C1002.67 4777.01 1068.69 4803.07 1088.2 4861.47C1107.72 4919.95 1074.06 4982.2 1045.26 5036.71C1020.42 5083.73 971.969 5108.44 936.711 5148.26C887.098 5204.29 871.908 5317.88 797.075 5316.99Z" fill="#9CC6EE"/>
<path fill-rule="evenodd" clip-rule="evenodd" d="M84.8693 -1016.31C259.658 -998.219 388.236 -846.832 536.983 -742.02C699.911 -627.215 896.456 -560.332 995.252 -374.826C1107.41 -164.222 1186.49 102.615 1109.06 332.143C1032.29 559.703 814.175 691.507 609.192 769.53C438.938 834.335 263.517 699.725 84.8693 721.983C-132.067 749.012 -329.366 1004.95 -531.241 911.621C-729.778 819.839 -783.105 528.53 -838.282 295.22C-890.921 72.6444 -912.747 -165.093 -836.425 -378.813C-762.894 -584.718 -600.08 -726.063 -432.047 -842.336C-275.019 -950.993 -98.7213 -1035.32 84.8693 -1016.31Z" fill="#8DBAEE"/>
<path fill-rule="evenodd" clip-rule="evenodd" d="M1751.34 1104.4C1853.66 1113.82 1928.93 1192.66 2016 1247.24C2111.38 1307.03 2226.43 1341.86 2284.27 1438.46C2349.93 1548.13 2396.21 1687.09 2350.89 1806.62C2305.95 1925.12 2178.27 1993.76 2058.27 2034.39C1958.61 2068.14 1855.92 1998.04 1751.34 2009.63C1624.35 2023.71 1508.85 2156.99 1390.67 2108.39C1274.45 2060.59 1243.23 1908.89 1210.93 1787.39C1180.12 1671.48 1167.34 1547.68 1212.02 1436.38C1255.07 1329.16 1350.37 1255.55 1448.74 1195C1540.66 1138.42 1643.87 1094.5 1751.34 1104.4Z" fill="#8DBAEE"/>
<path fill-rule="evenodd" clip-rule="evenodd" d="M232.796 5265.57C55.2467 5249.21 -75.3624 5112.33 -226.458 5017.57C-391.959 4913.77 -591.61 4853.29 -691.966 4685.57C-805.9 4495.15 -886.223 4253.89 -807.567 4046.36C-729.584 3840.61 -508.029 3721.44 -299.808 3650.9C-126.865 3592.3 51.3275 3714.01 232.796 3693.89C453.159 3669.45 653.575 3438.05 858.638 3522.43C1060.31 3605.41 1114.48 3868.8 1170.53 4079.75C1224 4280.99 1246.17 4495.94 1168.64 4689.17C1093.95 4875.34 928.565 5003.14 757.877 5108.27C598.369 5206.51 419.287 5282.75 232.796 5265.57Z" fill="#8DBAEE"/>
<path fill-rule="evenodd" clip-rule="evenodd" d="M62.9956 759.786C193.699 771.815 289.847 872.455 401.076 942.133C522.91 1018.45 669.883 1062.92 743.761 1186.24C827.633 1326.25 886.763 1503.64 828.86 1656.22C771.453 1807.5 608.355 1895.12 455.073 1946.99C327.761 1990.07 196.584 1900.59 62.9956 1915.38C-99.2247 1933.35 -246.761 2103.49 -397.719 2041.45C-546.18 1980.44 -586.057 1786.78 -627.318 1631.68C-666.68 1483.71 -683.001 1325.67 -625.929 1183.59C-570.944 1046.71 -449.195 952.741 -323.543 875.444C-206.121 803.21 -74.2896 747.151 62.9956 759.786Z" fill="#8DBAEE"/>
<path fill-rule="evenodd" clip-rule="evenodd" d="M1836.13 4677.69C1740.19 4668.86 1669.62 4594.99 1587.98 4543.85C1498.55 4487.83 1390.67 4455.19 1336.45 4364.67C1274.89 4261.91 1231.48 4131.7 1273.99 4019.7C1316.12 3908.66 1435.83 3844.35 1548.34 3806.28C1641.79 3774.66 1738.07 3840.34 1836.13 3829.48C1955.19 3816.29 2063.48 3691.41 2174.29 3736.94C2283.26 3781.73 2312.53 3923.88 2342.81 4037.72C2371.7 4146.33 2383.68 4262.33 2341.79 4366.62C2301.43 4467.09 2212.07 4536.06 2119.84 4592.8C2033.65 4645.82 1936.89 4686.96 1836.13 4677.69Z" fill="#8DBAEE"/>
<path fill-rule="evenodd" clip-rule="evenodd" d="M2017.12 -588.675C2171.83 -580.895 2313.37 -520.158 2453.48 -440.008C2627.36 -340.537 2883.06 -296.596 2925.78 -68.8578C2969.43 163.84 2727.59 323.225 2636.29 534.532C2566.37 696.39 2551.32 881.862 2454.57 1021.84C2333.32 1197.26 2202.97 1468.62 2017.12 1430.35C1821.9 1390.15 1833.39 1006.71 1675.56 861.407C1523.56 721.469 1263.9 818.487 1150.3 632.333C1032.51 439.291 1028.28 150.945 1107.73 -69.146C1184.91 -282.976 1379.85 -385.924 1553.71 -485.252C1699.41 -568.488 1856.26 -596.764 2017.12 -588.675Z" fill="#C0F4FF"/>
<path fill-rule="evenodd" clip-rule="evenodd" d="M523.697 1959.72C625.495 1963.93 718.622 1996.82 810.807 2040.22C925.213 2094.08 1093.46 2117.88 1121.57 2241.2C1150.29 2367.21 991.16 2453.51 931.094 2567.94C885.085 2655.58 875.183 2756.02 811.525 2831.81C731.747 2926.8 645.98 3073.75 523.697 3053.02C395.254 3031.25 402.814 2823.62 298.966 2744.94C198.954 2669.16 28.1038 2721.7 -46.637 2620.9C-124.143 2516.36 -126.923 2360.22 -74.6507 2241.04C-23.8652 2125.25 104.397 2069.51 218.794 2015.72C314.659 1970.65 417.862 1955.34 523.697 1959.72Z" fill="#C0F4FF"/>
<path fill-rule="evenodd" clip-rule="evenodd" d="M1072.49 880.708C1172.97 884.863 1264.89 917.302 1355.88 960.109C1468.8 1013.24 1634.86 1036.7 1662.61 1158.34C1690.96 1282.62 1533.89 1367.74 1474.61 1480.6C1429.19 1567.05 1419.42 1666.11 1356.59 1740.87C1277.84 1834.56 1193.19 1979.49 1072.49 1959.05C945.709 1937.58 953.17 1732.79 850.668 1655.18C751.951 1580.44 583.315 1632.26 509.543 1532.84C433.041 1429.74 430.296 1275.73 481.892 1158.18C532.019 1043.98 658.62 988.995 771.535 935.945C866.158 891.489 968.024 876.388 1072.49 880.708Z" fill="#C0F4FF"/>
<path fill-rule="evenodd" clip-rule="evenodd" d="M1036.51 4901.29C936.035 4897.14 844.116 4864.7 753.125 4821.89C640.201 4768.76 474.138 4745.3 446.392 4623.66C418.042 4499.38 575.108 4414.25 634.396 4301.4C679.809 4214.95 689.583 4115.89 752.415 4041.13C831.16 3947.44 915.816 3802.51 1036.51 3822.95C1163.29 3844.42 1155.83 4049.21 1258.33 4126.82C1357.05 4201.56 1525.69 4149.74 1599.46 4249.16C1675.96 4352.26 1678.71 4506.27 1627.11 4623.82C1576.98 4738.02 1450.38 4793 1337.47 4846.05C1242.84 4890.51 1140.98 4905.61 1036.51 4901.29Z" fill="#C0F4FF"/>
<path fill-rule="evenodd" clip-rule="evenodd" d="M462.16 594.72C535.787 599.553 596.102 647.33 655.178 691.538C713.379 735.091 778.801 777.902 799.907 847.464C820.855 916.507 787.083 986.921 765.709 1055.83C744.002 1125.82 733.899 1206.56 675.009 1250.17C615.964 1293.89 531.978 1303.48 462.16 1280.61C399.164 1259.97 377.666 1184.75 331.157 1137.51C295.163 1100.96 244.637 1081.08 220.916 1035.59C194.207 984.373 186.73 926.759 191.219 869.171C196.862 796.788 198.805 716.599 249.811 664.932C303.501 610.547 385.902 589.715 462.16 594.72Z" fill="#D2C5FF"/>
<path fill-rule="evenodd" clip-rule="evenodd" d="M1646.84 5187.28C1573.21 5182.45 1512.9 5134.67 1453.82 5090.46C1395.62 5046.91 1330.2 5004.1 1309.09 4934.54C1288.15 4865.49 1321.92 4795.08 1343.29 4726.17C1365 4656.18 1375.1 4575.44 1433.99 4531.83C1493.04 4488.11 1577.02 4478.52 1646.84 4501.39C1709.84 4522.03 1731.34 4597.25 1777.84 4644.49C1813.84 4681.04 1864.36 4700.92 1888.09 4746.41C1914.79 4797.63 1922.27 4855.24 1917.78 4912.83C1912.14 4985.21 1910.2 5065.4 1859.19 5117.07C1805.5 5171.45 1723.1 5192.28 1646.84 5187.28Z" fill="#D2C5FF"/>
<path fill-rule="evenodd" clip-rule="evenodd" d="M939.16 1579.72C1012.79 1584.55 1073.1 1632.33 1132.18 1676.54C1190.38 1720.09 1255.8 1762.9 1276.91 1832.46C1297.86 1901.51 1264.08 1971.92 1242.71 2040.83C1221 2110.82 1210.9 2191.56 1152.01 2235.17C1092.96 2278.89 1008.98 2288.48 939.16 2265.61C876.164 2244.97 854.666 2169.75 808.157 2122.51C772.163 2085.96 721.637 2066.08 697.916 2020.59C671.207 1969.37 663.73 1911.76 668.219 1854.17C673.862 1781.79 675.805 1701.6 726.811 1649.93C780.501 1595.55 862.902 1574.72 939.16 1579.72Z" fill="#D2C5FF"/>
<path fill-rule="evenodd" clip-rule="evenodd" d="M1169.84 4202.28C1096.22 4197.45 1035.9 4149.67 976.825 4105.46C918.624 4061.91 853.202 4019.1 832.096 3949.54C811.148 3880.49 844.92 3810.08 866.294 3741.17C888.001 3671.18 898.104 3590.44 956.994 3546.83C1016.04 3503.11 1100.03 3493.52 1169.84 3516.39C1232.84 3537.03 1254.34 3612.25 1300.85 3659.49C1336.84 3696.04 1387.37 3715.92 1411.09 3761.41C1437.8 3812.63 1445.27 3870.24 1440.78 3927.83C1435.14 4000.21 1433.2 4080.4 1382.19 4132.07C1328.5 4186.45 1246.1 4207.28 1169.84 4202.28Z" fill="#D2C5FF"/>
<path fill-rule="evenodd" clip-rule="evenodd" d="M1485.31 1488.14C1703.98 1502.5 1883.12 1644.47 2058.57 1775.84C2231.43 1905.26 2425.73 2032.48 2488.41 2239.18C2550.63 2444.35 2450.32 2653.59 2386.85 2858.37C2322.38 3066.35 2292.37 3306.25 2117.47 3435.84C1942.11 3565.76 1692.67 3594.27 1485.31 3526.3C1298.21 3464.97 1234.36 3241.46 1096.23 3101.09C989.333 2992.46 839.27 2933.38 768.818 2798.21C689.493 2646.02 667.287 2474.81 680.62 2303.69C697.379 2088.6 703.151 1850.31 854.638 1696.78C1014.1 1535.17 1258.82 1473.27 1485.31 1488.14Z" fill="#D2C5FF"/>
<path fill-rule="evenodd" clip-rule="evenodd" d="M1574.68 4180.81C1406.12 4173.84 1251.91 4119.4 1099.26 4047.57C909.822 3958.42 631.233 3919.04 584.687 3714.93C537.128 3506.37 800.621 3363.53 900.083 3174.14C976.269 3029.08 992.665 2862.85 1098.07 2737.4C1230.18 2580.18 1372.2 2336.97 1574.68 2371.27C1787.37 2407.3 1774.85 2750.95 1946.81 2881.18C2112.41 3006.6 2395.32 2919.65 2519.08 3086.49C2647.42 3259.5 2652.02 3517.93 2565.47 3715.19C2481.37 3906.83 2268.99 3999.1 2079.56 4088.12C1920.82 4162.72 1749.93 4188.06 1574.68 4180.81Z" fill="#C0F4FF"/>
<path fill-rule="evenodd" clip-rule="evenodd" d="M603.903 4102.26C425.599 4090.55 279.532 3974.84 136.467 3867.77C-4.48107 3762.29 -162.915 3658.61 -214.027 3490.13C-264.759 3322.92 -182.972 3152.38 -131.211 2985.48C-78.6417 2815.97 -54.1757 2620.44 88.4418 2514.83C231.431 2408.94 434.823 2385.7 603.904 2441.1C756.462 2491.08 808.525 2673.25 921.158 2787.66C1008.32 2876.19 1130.68 2924.34 1188.13 3034.51C1252.81 3158.55 1270.92 3298.09 1260.05 3437.56C1246.38 3612.87 1241.68 3807.08 1118.15 3932.21C988.132 4063.92 788.579 4114.38 603.903 4102.26Z" fill="#D2C5FF"/>
<path fill-rule="evenodd" clip-rule="evenodd" d="M125.719 6630.75C290.759 6615.57 412.166 6488.63 552.616 6400.74C706.456 6304.47 1017.71 6230.55 1111 6075C1216.91 5898.4 1228.61 5854.47 1155.5 5662C1083.01 5471.18 814.348 5198.66 620.798 5133.24C460.04 5078.9 294.402 5191.77 125.719 5173.11C-79.1176 5150.44 -265.413 4935.83 -456.028 5014.09C-643.491 5091.05 -693.844 5335.33 -745.944 5530.97C-795.646 5717.61 -816.256 5916.96 -744.19 6096.18C-674.76 6268.84 -521.028 6387.36 -362.366 6484.86C-214.096 6575.97 -47.6318 6646.68 125.719 6630.75Z" fill="#8DBAEE"/>
<path fill-rule="evenodd" clip-rule="evenodd" d="M2007.1 6393.93C2164.87 6387.62 2309.2 6338.37 2452.06 6273.39C2629.37 6192.74 2890.11 6157.12 2933.68 5972.47C2978.19 5783.81 2731.58 5654.58 2638.49 5483.26C2567.18 5352.03 2551.83 5201.66 2453.18 5088.17C2329.54 4945.94 2196.62 4725.93 2007.1 4756.96C1808.04 4789.55 1819.76 5100.43 1658.82 5218.24C1503.82 5331.7 1270.83 5291.57 1155 5442.5C1034.88 5599.01 1129.99 5830.06 1211 6008.5C1289.71 6181.87 1357.27 6229.54 1534.57 6310.07C1683.14 6377.56 1843.08 6400.48 2007.1 6393.93Z" fill="#C0F4FF"/>
</g>
</g>
<defs>
<filter id="filter0_f" x="-1636" y="-1769" width="5325" height="9152" filterUnits="userSpaceOnUse" color-interpolation-filters="sRGB">
<feFlood flood-opacity="0" result="BackgroundImageFix"/>
<feBlend mode="normal" in="SourceGraphic" in2="BackgroundImageFix" result="shape"/>
<feGaussianBlur stdDeviation="375" result="effect1_foregroundBlur"/>
</filter>
<clipPath id="clip0">
<rect width="2030" height="5776" fill="white"/>
</clipPath>
</defs>
</svg>
