<svg width="1876" height="4775" viewBox="0 0 1876 4775" fill="none" xmlns="http://www.w3.org/2000/svg">
<g clip-path="url(#clip0)">
<rect width="1876" height="4775" fill="#292F36"/>
<g filter="url(#filter0_f)">
<rect x="2739" y="-352" width="6576" height="3566" transform="rotate(90 2739 -352)" fill="#292F36"/>
<path fill-rule="evenodd" clip-rule="evenodd" d="M1530.18 2106.37C1528.61 2244.5 1329.71 2269.65 1228.87 2358.51C1159.95 2419.25 1119.96 2517.43 1033.56 2543.98C948.135 2570.24 865.57 2505.01 776.843 2497.44C646.852 2486.34 480.732 2592.78 395.23 2489.48C312.382 2389.4 426.243 2235.88 453.127 2106.37C473.272 2009.33 487.089 1915.03 532.565 1827.91C584.364 1728.69 630.011 1607.4 732.314 1571.57C834.731 1535.69 943.764 1597.55 1039.24 1650.44C1121.61 1696.07 1164.88 1785.08 1234.63 1849.85C1332.77 1941 1531.73 1968.9 1530.18 2106.37Z" fill="#276095"/>
<path fill-rule="evenodd" clip-rule="evenodd" d="M659.559 3587.02C696.818 3454 895.449 3481.19 1015.85 3421.46C1098.15 3380.63 1162.19 3296.14 1252.51 3292.85C1341.83 3289.6 1404.7 3373.97 1488.44 3404.25C1611.13 3448.62 1799.14 3388.8 1854.99 3510.71C1909.11 3628.82 1759.4 3747.64 1699.91 3865.78C1655.33 3954.3 1617.58 4041.82 1551.11 4114.19C1475.39 4196.63 1399.91 4301.97 1291.82 4310.1C1183.61 4318.25 1094.3 4230.28 1015.76 4154.48C948.011 4089.08 929.249 3991.9 878.646 3911.29C807.441 3797.85 622.477 3719.4 659.559 3587.02Z" fill="#276095"/>
<path fill-rule="evenodd" clip-rule="evenodd" d="M1949.18 1050.41C1939.88 1156.27 1862.14 1234.15 1808.32 1324.25C1749.36 1422.94 1715.02 1541.98 1619.76 1601.82C1511.61 1669.76 1374.58 1717.66 1256.71 1670.76C1139.86 1624.26 1072.17 1492.15 1032.11 1367.99C998.827 1264.86 1067.95 1158.61 1056.52 1050.41C1042.64 919.007 911.215 799.503 959.139 677.227C1006.27 556.973 1155.86 524.673 1275.67 491.252C1389.97 459.369 1512.05 446.148 1621.81 492.377C1727.54 536.915 1800.13 635.531 1859.83 737.309C1915.63 832.421 1958.94 939.204 1949.18 1050.41Z" fill="#1B4372"/>
<path fill-rule="evenodd" clip-rule="evenodd" d="M-18.4672 4498.56C17.9092 4398.7 113.158 4343.6 188.465 4270.5C270.953 4190.44 334.941 4084.33 442.444 4051.19C564.492 4013.56 709.246 4002.76 810.958 4078.57C911.799 4153.73 942.984 4298.85 949.551 4429.15C955.005 4537.37 860.736 4622.12 843.77 4729.59C823.169 4860.11 919.188 5009.56 841.249 5115.26C764.599 5219.22 611.743 5211.7 487.366 5212.97C368.711 5214.19 247.366 5195.36 153.32 5122.3C62.7134 5051.92 18.1266 4937.87 -13.2054 4824.11C-42.4852 4717.8 -56.6754 4603.44 -18.4672 4498.56Z" fill="#1B4372"/>
<path fill-rule="evenodd" clip-rule="evenodd" d="M2028.65 2488.44C2024.38 2596.71 1991.03 2695.76 1947.03 2793.81C1892.43 2915.5 1868.3 3094.45 1743.28 3124.35C1615.54 3154.9 1528.04 2985.64 1412.04 2921.76C1323.19 2872.82 1221.37 2862.29 1144.53 2794.58C1048.22 2709.72 899.254 2618.5 920.265 2488.44C942.335 2351.82 1152.83 2359.86 1232.6 2249.41C1309.42 2143.03 1256.16 1961.31 1358.35 1881.81C1464.33 1799.38 1622.62 1796.42 1743.44 1852.02C1860.83 1906.03 1917.34 2042.46 1971.87 2164.13C2017.56 2266.1 2033.09 2375.87 2028.65 2488.44Z" fill="#185D6B"/>
<path fill-rule="evenodd" clip-rule="evenodd" d="M276.959 3088.96C309.108 2985.48 366.952 2898.43 434.83 2815.11C519.07 2711.7 588.686 2545.1 717.185 2548.57C848.483 2552.13 889.193 2738.26 984.706 2829.99C1057.87 2900.26 1153.49 2936.79 1210.19 3022.08C1281.25 3128.96 1401.53 3255.64 1347.57 3375.83C1290.9 3502.08 1089.66 3439.83 984.019 3525.88C882.283 3608.75 886.695 3798.06 767.409 3848.4C643.71 3900.6 490.045 3862.49 387.729 3777.51C288.323 3694.95 269.043 3548.55 247.865 3416.91C230.118 3306.59 243.535 3196.54 276.959 3088.96Z" fill="#185D6B"/>
<path fill-rule="evenodd" clip-rule="evenodd" d="M1222.4 596.749C1213.94 732.005 1130.26 842.807 1052.82 951.332C976.538 1058.25 901.553 1178.43 779.713 1217.21C658.781 1255.69 535.449 1193.65 414.745 1154.38C292.155 1114.51 150.745 1095.95 74.3643 987.762C-2.21551 879.295 -19.0206 725.008 21.0431 596.749C57.1919 481.022 188.94 441.529 271.677 356.089C335.707 289.968 370.529 197.148 450.203 153.571C539.912 104.505 640.825 90.7697 741.693 99.0171C868.474 109.383 1008.93 112.953 1099.43 206.654C1194.68 305.284 1231.17 456.659 1222.4 596.749Z" fill="#2E1777"/>
<path fill-rule="evenodd" clip-rule="evenodd" d="M566.125 5124.86C609.308 4996.4 718.819 4911.04 821.7 4826.25C923.059 4742.72 1026.59 4646.04 1154.32 4640.12C1281.09 4634.25 1384.16 4726.1 1490.59 4795.26C1598.68 4865.51 1730.47 4920.04 1776.25 5044.3C1822.14 5168.9 1798.44 5322.27 1726.55 5435.79C1661.68 5538.22 1524.2 5542.27 1422.17 5603.39C1343.21 5650.68 1285.55 5731.33 1197.31 5752.8C1097.96 5776.97 996.93 5764.12 901.634 5730.05C781.855 5687.22 647.111 5647.42 583.949 5533.49C517.465 5413.57 521.399 5257.91 566.125 5124.86Z" fill="#2E1777"/>
</g>
</g>
<defs>
<filter id="filter0_f" x="-1527" y="-1052" width="4966" height="7976" filterUnits="userSpaceOnUse" color-interpolation-filters="sRGB">
<feFlood flood-opacity="0" result="BackgroundImageFix"/>
<feBlend mode="normal" in="SourceGraphic" in2="BackgroundImageFix" result="shape"/>
<feGaussianBlur stdDeviation="350" result="effect1_foregroundBlur"/>
</filter>
<clipPath id="clip0">
<rect width="1876" height="4775" fill="white"/>
</clipPath>
</defs>
</svg>
