<svg width="2030" height="2874" viewBox="0 0 2030 2874" fill="none" xmlns="http://www.w3.org/2000/svg">
<g clip-path="url(#clip0)">
<rect width="2030" height="2874" fill="#F2F6FF"/>
<g filter="url(#filter0_f)">
<path fill-rule="evenodd" clip-rule="evenodd" d="M1311.93 465.005C1387.12 465.897 1400.8 579.454 1449.17 637.026C1482.24 676.38 1535.68 699.209 1550.14 748.534C1564.43 797.307 1528.93 844.446 1524.8 895.102C1518.76 969.318 1576.7 1064.16 1520.47 1112.98C1465.99 1160.28 1382.42 1095.27 1311.93 1079.92C1259.1 1068.42 1207.77 1060.53 1160.34 1034.57C1106.33 1004.99 1040.31 978.933 1020.8 920.525C1001.28 862.053 1034.94 799.803 1063.74 745.293C1088.58 698.266 1137.03 673.56 1172.29 633.742C1221.9 577.712 1237.09 464.118 1311.93 465.005Z" fill="#9CC6EE"/>
<path fill-rule="evenodd" clip-rule="evenodd" d="M458.424 -294.495C568.681 -284.358 649.788 -199.547 743.617 -140.829C846.392 -76.5121 970.373 -39.0423 1032.69 64.8828C1103.45 182.868 1153.33 332.357 1104.48 460.945C1056.05 588.43 918.47 662.269 789.167 705.98C681.77 742.286 571.115 666.874 458.424 679.343C321.581 694.486 197.124 837.866 69.7816 785.583C-55.4552 734.165 -89.0939 570.966 -123.9 440.26C-157.104 315.567 -170.872 182.381 -122.728 62.6489C-76.3447 -52.7041 26.358 -131.889 132.354 -197.028C231.407 -257.901 342.615 -305.142 458.424 -294.495Z" fill="#8DBAEE"/>
<path fill-rule="evenodd" clip-rule="evenodd" d="M1751.34 1104.4C1853.66 1113.82 1928.93 1192.66 2016 1247.24C2111.38 1307.03 2226.43 1341.86 2284.27 1438.46C2349.92 1548.13 2396.21 1687.09 2350.89 1806.62C2305.95 1925.12 2178.27 1993.76 2058.27 2034.39C1958.61 2068.14 1855.92 1998.04 1751.34 2009.63C1624.34 2023.71 1508.85 2156.99 1390.67 2108.39C1274.45 2060.59 1243.23 1908.89 1210.93 1787.39C1180.12 1671.48 1167.34 1547.68 1212.02 1436.38C1255.07 1329.16 1350.37 1255.55 1448.74 1195C1540.66 1138.42 1643.87 1094.5 1751.34 1104.4Z" fill="#8DBAEE"/>
<path fill-rule="evenodd" clip-rule="evenodd" d="M272.876 1104.31C368.811 1113.14 439.383 1187.01 521.025 1238.15C610.45 1294.17 718.327 1326.81 772.553 1417.33C834.115 1520.09 877.516 1650.3 835.016 1762.3C792.879 1873.34 673.166 1937.65 560.658 1975.72C467.212 2007.34 370.929 1941.66 272.876 1952.52C153.807 1965.71 45.5168 2090.59 -65.2855 2045.06C-174.255 2000.27 -203.525 1858.12 -233.809 1744.28C-262.701 1635.67 -274.681 1519.67 -232.79 1415.38C-192.431 1314.91 -103.069 1245.94 -10.841 1189.2C75.3461 1136.18 172.11 1095.04 272.876 1104.31Z" fill="#8DBAEE"/>
<path fill-rule="evenodd" clip-rule="evenodd" d="M1690.7 -152.283C1792.5 -148.07 1885.62 -115.181 1977.81 -71.779C2092.21 -17.9154 2260.46 5.879 2288.57 129.199C2317.29 255.206 2158.16 341.513 2098.09 455.937C2052.08 543.583 2042.18 644.016 1978.53 719.813C1898.75 814.805 1812.98 961.749 1690.7 941.023C1562.25 919.254 1569.81 711.623 1465.97 632.94C1365.95 557.163 1195.1 609.698 1120.36 508.896C1042.86 404.363 1040.08 248.223 1092.35 129.043C1143.13 13.254 1271.4 -42.4925 1385.79 -96.2785C1481.66 -141.351 1584.86 -156.662 1690.7 -152.283Z" fill="#C0F4FF"/>
<path fill-rule="evenodd" clip-rule="evenodd" d="M523.697 1959.72C625.495 1963.93 718.622 1996.82 810.807 2040.22C925.213 2094.08 1093.46 2117.88 1121.57 2241.2C1150.29 2367.21 991.16 2453.51 931.094 2567.94C885.085 2655.58 875.183 2756.02 811.525 2831.81C731.747 2926.8 645.98 3073.75 523.697 3053.02C395.254 3031.25 402.814 2823.62 298.966 2744.94C198.954 2669.16 28.1038 2721.7 -46.637 2620.9C-124.143 2516.36 -126.923 2360.22 -74.6507 2241.04C-23.8652 2125.25 104.397 2069.51 218.794 2015.72C314.659 1970.65 417.862 1955.34 523.697 1959.72Z" fill="#C0F4FF"/>
<path fill-rule="evenodd" clip-rule="evenodd" d="M1072.49 880.708C1172.97 884.863 1264.89 917.302 1355.88 960.109C1468.8 1013.24 1634.86 1036.7 1662.61 1158.34C1690.96 1282.62 1533.89 1367.74 1474.61 1480.6C1429.19 1567.05 1419.42 1666.11 1356.59 1740.87C1277.84 1834.56 1193.19 1979.49 1072.49 1959.05C945.708 1937.58 953.17 1732.79 850.667 1655.18C751.951 1580.44 583.315 1632.26 509.542 1532.84C433.04 1429.74 430.296 1275.73 481.891 1158.18C532.019 1043.98 658.62 988.995 771.534 935.945C866.157 891.489 968.023 876.388 1072.49 880.708Z" fill="#C0F4FF"/>
<path fill-rule="evenodd" clip-rule="evenodd" d="M462.16 594.72C535.786 599.553 596.102 647.33 655.178 691.538C713.379 735.091 778.801 777.902 799.906 847.464C820.855 916.507 787.083 986.921 765.709 1055.83C744.002 1125.82 733.899 1206.56 675.008 1250.17C615.964 1293.89 531.978 1303.48 462.16 1280.61C399.164 1259.97 377.665 1184.75 331.156 1137.51C295.163 1100.96 244.637 1081.08 220.915 1035.59C194.207 984.373 186.73 926.759 191.219 869.171C196.862 796.788 198.805 716.599 249.811 664.932C303.501 610.547 385.902 589.715 462.16 594.72Z" fill="#D2C5FF"/>
<path fill-rule="evenodd" clip-rule="evenodd" d="M939.16 1579.72C1012.79 1584.55 1073.1 1632.33 1132.18 1676.54C1190.38 1720.09 1255.8 1762.9 1276.91 1832.46C1297.85 1901.51 1264.08 1971.92 1242.71 2040.83C1221 2110.82 1210.9 2191.56 1152.01 2235.17C1092.96 2278.89 1008.98 2288.48 939.16 2265.61C876.164 2244.97 854.665 2169.75 808.156 2122.51C772.163 2085.96 721.637 2066.08 697.915 2020.59C671.207 1969.37 663.73 1911.76 668.219 1854.17C673.862 1781.79 675.805 1701.6 726.811 1649.93C780.501 1595.55 862.902 1574.72 939.16 1579.72Z" fill="#D2C5FF"/>
<path fill-rule="evenodd" clip-rule="evenodd" d="M1537.65 1994.1C1649.55 2001.44 1741.22 2074.07 1831.01 2141.27C1919.47 2207.48 2018.9 2272.56 2050.98 2378.3C2082.81 2483.25 2031.49 2590.29 1999 2695.05C1966.01 2801.44 1950.65 2924.17 1861.15 2990.46C1771.41 3056.92 1643.76 3071.51 1537.65 3036.74C1441.9 3005.36 1409.23 2891.02 1338.54 2819.22C1283.83 2763.65 1207.04 2733.42 1170.99 2664.28C1130.39 2586.42 1119.03 2498.84 1125.85 2411.3C1134.43 2301.26 1137.38 2179.37 1214.9 2100.83C1296.51 2018.15 1421.74 1986.49 1537.65 1994.1Z" fill="#D2C5FF"/>
</g>
</g>
<defs>
<filter id="filter0_f" x="-460" y="-496" width="3029" height="3751" filterUnits="userSpaceOnUse" color-interpolation-filters="sRGB">
<feFlood flood-opacity="0" result="BackgroundImageFix"/>
<feBlend mode="normal" in="SourceGraphic" in2="BackgroundImageFix" result="shape"/>
<feGaussianBlur stdDeviation="100" result="effect1_foregroundBlur"/>
</filter>
<clipPath id="clip0">
<rect width="2030" height="2874" fill="white"/>
</clipPath>
</defs>
</svg>
