<svg width="32" height="32" viewBox="0 0 32 32" fill="none" xmlns="http://www.w3.org/2000/svg">
<path d="M24.0001 12L18.0001 6.74001C17.4501 6.24805 16.738 5.97607 16.0001 5.97607C15.2622 5.97607 14.5501 6.24805 14.0001 6.74001L8.00009 12C7.68246 12.2841 7.42899 12.6326 7.25657 13.0223C7.08414 13.4119 6.99671 13.8339 7.00009 14.26V23C7.00009 23.7957 7.31617 24.5587 7.87877 25.1213C8.44138 25.6839 9.20445 26 10.0001 26H22.0001C22.7957 26 23.5588 25.6839 24.1214 25.1213C24.684 24.5587 25.0001 23.7957 25.0001 23V14.25C25.0021 13.8256 24.9139 13.4055 24.7416 13.0177C24.5692 12.6298 24.3165 12.283 24.0001 12V12ZM18.0001 24H14.0001V19C14.0001 18.7348 14.1055 18.4804 14.293 18.2929C14.4805 18.1054 14.7349 18 15.0001 18H17.0001C17.2653 18 17.5197 18.1054 17.7072 18.2929C17.8947 18.4804 18.0001 18.7348 18.0001 19V24ZM23.0001 23C23.0001 23.2652 22.8947 23.5196 22.7072 23.7071C22.5197 23.8946 22.2653 24 22.0001 24H20.0001V19C20.0001 18.2044 19.684 17.4413 19.1214 16.8787C18.5588 16.3161 17.7957 16 17.0001 16H15.0001C14.2044 16 13.4414 16.3161 12.8788 16.8787C12.3162 17.4413 12.0001 18.2044 12.0001 19V24H10.0001C9.73488 24 9.48052 23.8946 9.29299 23.7071C9.10545 23.5196 9.00009 23.2652 9.00009 23V14.25C9.00027 14.108 9.03069 13.9677 9.08931 13.8384C9.14794 13.7091 9.23343 13.5937 9.3401 13.5L15.3401 8.25001C15.5226 8.08969 15.7572 8.00127 16.0001 8.00127C16.243 8.00127 16.4776 8.08969 16.6601 8.25001L22.6601 13.5C22.7668 13.5937 22.8523 13.7091 22.9109 13.8384C22.9695 13.9677 22.9999 14.108 23.0001 14.25V23Z" fill="#326FFF"/>
</svg>
