<svg width="16" height="16" viewBox="0 0 16 16" fill="none" xmlns="http://www.w3.org/2000/svg">
<path d="M8.9688 10.3969C8.94531 10.3737 8.91358 10.3606 8.88052 10.3606C8.84746 10.3606 8.81573 10.3737 8.79224 10.3969L6.97661 12.2125C6.13599 13.0532 4.71724 13.1422 3.78911 12.2125C2.85942 11.2829 2.94849 9.86567 3.78911 9.02505L5.60474 7.20942C5.65317 7.16099 5.65317 7.0813 5.60474 7.03286L4.98286 6.41099C4.95937 6.38772 4.92764 6.37467 4.89458 6.37467C4.86152 6.37467 4.82979 6.38772 4.8063 6.41099L2.99067 8.22661C1.6688 9.54849 1.6688 11.6875 2.99067 13.0079C4.31255 14.3282 6.45161 14.3297 7.77192 13.0079L9.58755 11.1922C9.63599 11.1438 9.63599 11.0641 9.58755 11.0157L8.9688 10.3969ZM13.0094 2.99067C11.6875 1.6688 9.54849 1.6688 8.22817 2.99067L6.41099 4.8063C6.38772 4.82979 6.37467 4.86152 6.37467 4.89458C6.37467 4.92764 6.38772 4.95937 6.41099 4.98286L7.0313 5.60317C7.07974 5.65161 7.15942 5.65161 7.20786 5.60317L9.02349 3.78755C9.86411 2.94692 11.2829 2.85786 12.211 3.78755C13.1407 4.71724 13.0516 6.13442 12.211 6.97505L10.3954 8.79067C10.3721 8.81417 10.359 8.84589 10.359 8.87896C10.359 8.91202 10.3721 8.94374 10.3954 8.96724L11.0172 9.58911C11.0657 9.63755 11.1454 9.63755 11.1938 9.58911L13.0094 7.77349C14.3297 6.45161 14.3297 4.31255 13.0094 2.99067V2.99067ZM9.53286 5.81724C9.50937 5.79397 9.47764 5.78092 9.44458 5.78092C9.41152 5.78092 9.37979 5.79397 9.3563 5.81724L5.81724 9.35474C5.79397 9.37823 5.78092 9.40996 5.78092 9.44302C5.78092 9.47608 5.79397 9.50781 5.81724 9.5313L6.43599 10.15C6.48442 10.1985 6.56411 10.1985 6.61255 10.15L10.15 6.61255C10.1985 6.56411 10.1985 6.48442 10.15 6.43599L9.53286 5.81724Z" fill="#5926FF"/>
</svg>
