<svg width="32" height="32" viewBox="0 0 32 32" fill="none" xmlns="http://www.w3.org/2000/svg">
<rect width="32" height="32" rx="8" fill="#326FFF"/>
<path d="M13.071 21.4109H14.7565V17.9364L16.0765 16.42L19.6874 21.4109H21.7165L17.1946 15.2691L21.7001 10.24H19.5783L14.8928 15.5745H14.7565V10.24H13.071V21.4109Z" fill="#F2F6FF"/>
<path d="M24.2145 21.5145C24.809 21.5145 25.3054 21.0291 25.3054 20.4236C25.3054 19.8291 24.809 19.3381 24.2145 19.3381C23.6145 19.3381 23.1235 19.8291 23.1235 20.4236C23.1235 21.0291 23.6145 21.5145 24.2145 21.5145Z" fill="#F2F6FF"/>
<path d="M14.8889 21.4109H13.2034V17.4836H10.9125C8.32161 17.4836 7.03979 15.9182 7.03979 13.8564C7.03979 11.8 8.31071 10.24 10.9071 10.24H14.8889V21.4109ZM13.2034 16.0545V11.6854H11.0871C9.41798 11.6854 8.73616 12.5909 8.73616 13.8564C8.73616 15.1218 9.41798 16.0545 11.0652 16.0545H13.2034Z" fill="#F2F6FF"/>
</svg>
