<svg width="32" height="32" viewBox="0 0 32 32" fill="none" xmlns="http://www.w3.org/2000/svg">
<path d="M7.70999 20.29C7.61488 20.199 7.50274 20.1276 7.37999 20.08C7.13653 19.98 6.86345 19.98 6.61999 20.08C6.49724 20.1276 6.38509 20.199 6.28999 20.29C6.19895 20.3851 6.12758 20.4972 6.07999 20.62C6.00341 20.8021 5.98249 21.0028 6.01986 21.1968C6.05723 21.3908 6.15123 21.5694 6.28999 21.71C6.38719 21.7983 6.4988 21.8694 6.61999 21.92C6.73969 21.9729 6.86912 22.0002 6.99999 22.0002C7.13086 22.0002 7.26029 21.9729 7.37999 21.92C7.50117 21.8694 7.61279 21.7983 7.70999 21.71C7.84875 21.5694 7.94274 21.3908 7.98012 21.1968C8.01749 21.0028 7.99657 20.8021 7.91999 20.62C7.87239 20.4972 7.80103 20.3851 7.70999 20.29V20.29ZM11 12H25C25.2652 12 25.5196 11.8946 25.7071 11.7071C25.8946 11.5196 26 11.2652 26 11C26 10.7348 25.8946 10.4804 25.7071 10.2929C25.5196 10.1054 25.2652 10 25 10H11C10.7348 10 10.4804 10.1054 10.2929 10.2929C10.1053 10.4804 9.99999 10.7348 9.99999 11C9.99999 11.2652 10.1053 11.5196 10.2929 11.7071C10.4804 11.8946 10.7348 12 11 12ZM7.70999 15.29C7.56936 15.1512 7.39079 15.0572 7.1968 15.0199C7.00281 14.9825 6.8021 15.0034 6.61999 15.08C6.4988 15.1306 6.38719 15.2017 6.28999 15.29C6.19895 15.3851 6.12758 15.4972 6.07999 15.62C6.02708 15.7397 5.99976 15.8691 5.99976 16C5.99976 16.1309 6.02708 16.2603 6.07999 16.38C6.13063 16.5012 6.20166 16.6128 6.28999 16.71C6.38719 16.7983 6.4988 16.8694 6.61999 16.92C6.73969 16.9729 6.86912 17.0002 6.99999 17.0002C7.13086 17.0002 7.26029 16.9729 7.37999 16.92C7.50117 16.8694 7.61279 16.7983 7.70999 16.71C7.79832 16.6128 7.86935 16.5012 7.91999 16.38C7.97289 16.2603 8.00022 16.1309 8.00022 16C8.00022 15.8691 7.97289 15.7397 7.91999 15.62C7.87239 15.4972 7.80103 15.3851 7.70999 15.29V15.29ZM25 15H11C10.7348 15 10.4804 15.1054 10.2929 15.2929C10.1053 15.4804 9.99999 15.7348 9.99999 16C9.99999 16.2652 10.1053 16.5196 10.2929 16.7071C10.4804 16.8946 10.7348 17 11 17H25C25.2652 17 25.5196 16.8946 25.7071 16.7071C25.8946 16.5196 26 16.2652 26 16C26 15.7348 25.8946 15.4804 25.7071 15.2929C25.5196 15.1054 25.2652 15 25 15ZM7.70999 10.29C7.61488 10.199 7.50274 10.1276 7.37999 10.08C7.19788 10.0034 6.99716 9.9825 6.80317 10.0199C6.60919 10.0572 6.43061 10.1512 6.28999 10.29C6.20166 10.3872 6.13063 10.4988 6.07999 10.62C6.02708 10.7397 5.99976 10.8691 5.99976 11C5.99976 11.1309 6.02708 11.2603 6.07999 11.38C6.13063 11.5012 6.20166 11.6128 6.28999 11.71C6.38719 11.7983 6.4988 11.8694 6.61999 11.92C6.8021 11.9966 7.00281 12.0175 7.1968 11.9801C7.39079 11.9428 7.56936 11.8488 7.70999 11.71C7.79832 11.6128 7.86935 11.5012 7.91999 11.38C7.97289 11.2603 8.00022 11.1309 8.00022 11C8.00022 10.8691 7.97289 10.7397 7.91999 10.62C7.86935 10.4988 7.79832 10.3872 7.70999 10.29V10.29ZM25 20H11C10.7348 20 10.4804 20.1054 10.2929 20.2929C10.1053 20.4804 9.99999 20.7348 9.99999 21C9.99999 21.2652 10.1053 21.5196 10.2929 21.7071C10.4804 21.8946 10.7348 22 11 22H25C25.2652 22 25.5196 21.8946 25.7071 21.7071C25.8946 21.5196 26 21.2652 26 21C26 20.7348 25.8946 20.4804 25.7071 20.2929C25.5196 20.1054 25.2652 20 25 20Z" fill="#326FFF"/>
</svg>
